<svg id="Layer_11" data-name="Layer 11" xmlns="http://www.w3.org/2000/svg" width="144" height="72" viewBox="0 0 305.44 345.08">
  <title>CPlusPlusLogo</title>
  <path d="M1237.19,303.91a27.13,27.13,0,0,0,3.9-13.05V144.79a27,27,0,0,0-3.9-13l-149.1,86.09Z" transform="translate(-935.65 -44.92)" style="fill: #00599c"/>
  <path d="M1101.34,386.84l126.5-73a27.09,27.09,0,0,0,9.35-9.9l-149.1-86.08L939,303.91a27,27,0,0,0,9.36,9.9l126.5,73C1082.12,391.05,1094.05,391.05,1101.34,386.84Z" transform="translate(-935.65 -44.92)" style="fill: #004482"/>
  <path d="M1237.75,131a27.17,27.17,0,0,0-9.35-9.9l-126.5-73c-7.29-4.21-19.22-4.21-26.5,0l-126.5,73c-7.29,4.21-13.25,14.54-13.25,23V290.13a27.15,27.15,0,0,0,3.89,13.06l149.11-86.09Z" transform="translate(-935.65 -44.92)" style="fill: #659ad2"/>
  <path d="M1088.09,319.83a102,102,0,1,1,88.33-153l-44.15,25.55a51,51,0,1,0,0,51l44.14,25.54A102.35,102.35,0,0,1,1088.09,319.83Z" transform="translate(-935.65 -44.92)" style="fill: #fff"/>
  <polygon points="254.44 167.24 243.11 167.24 243.11 155.9 231.77 155.9 231.77 167.24 220.44 167.24 220.44 178.57 231.77 178.57 231.77 189.9 243.11 189.9 243.11 178.57 254.44 178.57 254.44 167.24" style="fill: #fff"/>
  <polygon points="296.94 167.24 285.61 167.24 285.61 155.9 274.27 155.9 274.27 167.24 262.94 167.24 262.94 178.57 274.27 178.57 274.27 189.9 285.61 189.9 285.61 178.57 296.94 178.57 296.94 167.24" style="fill: #fff"/>
</svg>
