<svg id="crystal" xmlns="http://www.w3.org/2000/svg" width="144" height="72" viewBox="0 0 193.2 206.7">
  <title>CrystalLogo</title>
  <g>
    <path d="M253.25,586.48l-50,49.9a.66.66,0,0,1-.7.2l-68.3-18.3c-.3-.1-.5-.3-.5-.5l-18.4-68.2a.62.62,0,0,1,.2-.7l50-49.9a.66.66,0,0,1,.7-.2l68.3,18.3c.3.1.5.3.5.5l18.3,68.2A.48.48,0,0,1,253.25,586.48Zm-67-54.3-67.1,17.9a.19.19,0,0,0-.1.3l49.1,49c.1.1.3.1.3-.1l18-67C186.55,532.28,186.35,532.08,186.25,532.18Z" transform="translate(-87.85 -464.48)"/>
    <rect width="193.2" height="206.7" style="fill: none"/>
  </g>
</svg>
