<svg id="goLang" xmlns="http://www.w3.org/2000/svg" width="144" height="72" viewBox="0 0 256 95.64">
  <title>goLangLogo</title>
  <g id="g4158">
    <g id="g4160">
      <g id="g4162">
        <g id="g4164">
          <path id="path4166" d="M681,389.21c-.5,0-.62-.25-.37-.63l2.62-3.36a1.77,1.77,0,0,1,1.37-.63h44.5c.49,0,.62.38.37.75l-2.12,3.24a1.87,1.87,0,0,1-1.25.75Z" transform="translate(-661.69 -360.25)" style="fill: #00acd7"/>
        </g>
      </g>
    </g>
    <g id="g4168">
      <g id="g4170">
        <g id="g4172">
          <path id="path4174" d="M662.19,400.67c-.5,0-.62-.25-.37-.62l2.62-3.37a1.79,1.79,0,0,1,1.37-.62h56.83a.58.58,0,0,1,.63.75l-1,3a1.08,1.08,0,0,1-1.12.75Z" transform="translate(-661.69 -360.25)" style="fill: #00acd7"/>
        </g>
      </g>
    </g>
    <g id="g4176">
      <g id="g4178">
        <g id="g4180">
          <path id="path4182" d="M692.36,412.14c-.5,0-.63-.37-.38-.75l1.75-3.11a1.63,1.63,0,0,1,1.24-.75H719.9c.5,0,.75.37.75.87l-.25,3a.93.93,0,0,1-.87.87Z" transform="translate(-661.69 -360.25)" style="fill: #00acd7"/>
        </g>
      </g>
    </g>
    <g id="g4184">
      <g id="CXHf1q">
        <g id="g4187">
          <g id="g4189">
            <path id="path4191" d="M821.73,387c-7.85,2-13.21,3.49-20.94,5.49-1.87.5-2,.62-3.61-1.25a16.71,16.71,0,0,0-5.86-4.74c-7.85-3.86-15.45-2.74-22.56,1.87-8.47,5.49-12.84,13.59-12.71,23.69s7,18.19,16.82,19.56c8.48,1.13,15.58-1.87,21.19-8.22,1.13-1.37,2.12-2.87,3.37-4.61H773.37c-2.61,0-3.24-1.62-2.37-3.74,1.63-3.87,4.62-10.35,6.36-13.59a3.37,3.37,0,0,1,3.12-2h45.37c-.25,3.36-.25,6.73-.75,10.09A53.17,53.17,0,0,1,814.88,434c-9,11.84-20.69,19.2-35.52,21.19-12.22,1.62-23.56-.75-33.53-8.22A39.14,39.14,0,0,1,730,419.24c-1.62-13.58,2.37-25.8,10.59-36.52a55.34,55.34,0,0,1,34.9-21.56c11.72-2.12,22.94-.75,33,6.11A39,39,0,0,1,823,384.84c.75,1.13.25,1.75-1.25,2.12Z" transform="translate(-661.69 -360.25)" style="fill: #00acd7"/>
          </g>
          <g id="g4193">
            <path id="path4195" d="M863,455.89c-11.34-.25-21.69-3.49-30.41-11a39,39,0,0,1-13.46-24.05c-2.25-14.09,1.62-26.55,10.09-37.65,9.1-12,20.07-18.19,34.9-20.81,12.72-2.25,24.68-1,35.53,6.35,9.84,6.74,16,15.83,17.57,27.8,2.12,16.83-2.74,30.54-14.33,42.25a57.18,57.18,0,0,1-29.92,16c-3.36.62-6.73.75-10,1.12Zm29.67-50.36a36.86,36.86,0,0,0-.38-4.11c-2.24-12.34-13.58-19.32-25.43-16.58-11.59,2.62-19.07,10-21.81,21.69a20.54,20.54,0,0,0,11.47,23.56,22.85,22.85,0,0,0,20.32-.75C886.67,424.23,892,416.25,892.66,405.53Z" transform="translate(-661.69 -360.25)" style="fill: #00acd7"/>
          </g>
        </g>
      </g>
    </g>
  </g>
</svg>
