<svg id="JavaLogo" xmlns="http://www.w3.org/2000/svg" width={144} height={72} viewBox="0 0 116.33 216.36">
  <title>JavaLogo</title>
  <path d="M861.58,236h-.82v-.45H863V236h-.81v2.28h-.57V236Zm4.38.12h0l-.8,2.16h-.37l-.8-2.16h0v2.16h-.54v-2.73h.79l.74,1.93.74-1.93h.79v2.73H866v-2.15Z" transform="translate(-750.15 -65.42)" style={{fill: '#e76f00'}} />
  <path d="M788.61,180.19s-5.67,3.29,4,4.41c11.76,1.34,17.77,1.15,30.73-1.3a53.47,53.47,0,0,0,8.16,4c-29,12.46-65.75-.72-42.93-7.1" transform="translate(-750.15 -65.42)" style={{fill: '#5382a1'}} />
  <path d="M785.06,163.94s-6.36,4.71,3.35,5.71c12.57,1.3,22.49,1.4,39.65-1.9a17.58,17.58,0,0,0,6.11,3.72c-35.13,10.28-74.25.81-49.11-7.53" transform="translate(-750.15 -65.42)" style={{fill: '#5382a1'}} />
  <path d="M815,136.38c7.15,8.24-1.89,15.66-1.89,15.66s18.18-9.39,9.83-21.14c-7.79-11-13.77-16.4,18.6-35.17,0,0-50.81,12.69-26.54,40.65" transform="translate(-750.15 -65.42)" style={{fill: '#e76f00'}} />
  <path d="M853.41,192.21s4.2,3.45-4.62,6.13c-16.77,5.08-69.8,6.61-84.53.2-5.29-2.3,4.64-5.5,7.76-6.17a19.76,19.76,0,0,1,5.12-.57c-5.89-4.15-38.06,8.14-16.34,11.66,59.23,9.61,108-4.32,92.61-11.25" transform="translate(-750.15 -65.42)" style={{fill: '#5382a1'}} />
  <path d="M791.34,147.11s-27,6.4-9.55,8.73c7.35,1,22,.76,35.67-.38,11.17-.94,22.37-3,22.37-3a48.05,48.05,0,0,0-6.78,3.63c-27.39,7.21-80.3,3.86-65.07-3.51,12.88-6.23,23.36-5.52,23.36-5.52" transform="translate(-750.15 -65.42)" style={{fill: '#5382a1'}} />
  <path d="M839.72,174.15c27.84-14.47,15-28.37,6-26.5a20.53,20.53,0,0,0-3.19.86,5.12,5.12,0,0,1,2.38-1.84c17.78-6.25,31.45,18.43-5.74,28.21a2.37,2.37,0,0,0,.56-.73" transform="translate(-750.15 -65.42)" style={{fill: '#5382a1'}} />
  <path d="M822.94,65.42s15.42,15.42-14.63,39.14c-24.09,19-5.49,29.88,0,42.28-14.06-12.69-24.38-23.86-17.46-34.26C801,97.32,829.15,89.92,822.93,65.42" transform="translate(-750.15 -65.42)" style={{fill: '#e76f00'}} />
  <path d="M794.07,213.36c26.73,1.71,67.77-1,68.74-13.6,0,0-1.86,4.8-22.08,8.6-22.82,4.3-51,3.8-67.64,1,0,0,3.42,2.82,21,4" transform="translate(-750.15 -65.42)" style={{fill: '#5382a1'}} />
  <path d="M789.69,261.68c-2.52,2.19-5.18,3.41-7.57,3.41-3.41,0-5.25-2-5.25-5.32,0-3.55,2-6.15,9.89-6.15h2.93v8.06m7,7.84V245.23c0-6.21-3.54-10.3-12.08-10.3a31.79,31.79,0,0,0-12.89,2.8l1,4.3a29.89,29.89,0,0,1,10-2c4.92,0,7,2,7,6.07v3.07h-2.45c-12,0-17.34,4.64-17.34,11.6,0,6,3.55,9.42,10.24,9.42,4.3,0,7.51-1.78,10.51-4.37l.54,3.69h5.46Z" transform="translate(-750.15 -65.42)" style={{fill: '#e76f00'}} />
  <path d="M819.87,269.53h-8.68l-10.44-34h7.57l6.48,20.88,1.44,6.28A130.47,130.47,0,0,0,823,235.54h7.37a137.69,137.69,0,0,1-10.5,34" transform="translate(-750.15 -65.42)" style={{fill: '#e76f00'}} />
  <path d="M853.15,261.68c-2.52,2.19-5.19,3.41-7.58,3.41-3.4,0-5.25-2-5.25-5.32,0-3.55,2-6.15,9.9-6.15h2.93v8.06m7,7.84V245.23c0-6.21-3.55-10.3-12.07-10.3a31.76,31.76,0,0,0-12.9,2.8l1,4.3a29.89,29.89,0,0,1,10-2c4.92,0,7,2,7,6.07v3.07H850.7c-12,0-17.34,4.64-17.34,11.6,0,6,3.55,9.42,10.23,9.42,4.3,0,7.51-1.78,10.52-4.37l.54,3.69h5.46Z" transform="translate(-750.15 -65.42)" style={{fill: '#e76f00'}} />
  <path d="M762.28,275.3a18.31,18.31,0,0,1-8.7,6.48l-3.43-4a14.38,14.38,0,0,0,6-5.64c.92-1.84,1.3-4.2,1.3-9.84v-38.8h7.39v38.26c0,7.55-.6,10.6-2.58,13.58" transform="translate(-750.15 -65.42)" style={{fill: '#e76f00'}} />
</svg>