<svg id="node.js" xmlns="http://www.w3.org/2000/svg" width={144} height={72} viewBox="0 0 590.97 159.02">
  <title>nodejsLogo</title>
  <g id="layer1">
    <path id="path22" d="M320.09,294.26a2.49,2.49,0,0,0-1.19.32,2.41,2.41,0,0,0-1.19,2.06v60.65a1.61,1.61,0,0,1-.79,1.42,1.66,1.66,0,0,1-1.67,0L305.34,353a4.74,4.74,0,0,0-4.75,0L261,375.84a4.86,4.86,0,0,0-2.38,4.2V425.7a4.75,4.75,0,0,0,2.38,4.12l39.56,22.83a4.74,4.74,0,0,0,4.75,0l39.56-22.83a4.75,4.75,0,0,0,2.38-4.12V311.86a4.85,4.85,0,0,0-2.46-4.2L321.28,294.5a2.45,2.45,0,0,0-1.19-.24Zm-254.46,57a4.36,4.36,0,0,0-2.14.56L23.93,374.65a4.72,4.72,0,0,0-2.38,4.12L21.63,440a2.35,2.35,0,0,0,1.19,2.07,2.31,2.31,0,0,0,2.38,0l23.46-13.48a4.83,4.83,0,0,0,2.46-4.12V395.89a4.73,4.73,0,0,1,2.38-4.12l10-5.79a4.79,4.79,0,0,1,4.75,0l10,5.79a4.73,4.73,0,0,1,2.38,4.12v28.62a4.84,4.84,0,0,0,2.46,4.12l23.46,13.48a2.31,2.31,0,0,0,2.38,0A2.39,2.39,0,0,0,110.1,440l.08-61.27a4.72,4.72,0,0,0-2.38-4.12L68.24,351.82a4.36,4.36,0,0,0-2.14-.56Zm355.45.56a4.59,4.59,0,0,0-2.38.63l-39.56,22.83a4.75,4.75,0,0,0-2.37,4.12v45.66a4.75,4.75,0,0,0,2.45,4.12l39.24,22.36a4.76,4.76,0,0,0,4.68.08l23.78-13.24a2.39,2.39,0,0,0,1.27-2.06,2.34,2.34,0,0,0-1.19-2.06l-39.79-22.83a2.56,2.56,0,0,1-1.27-2.14V395a2.43,2.43,0,0,1,1.27-2.06l12.36-7.14a2.41,2.41,0,0,1,2.38,0L434.32,393a2.35,2.35,0,0,1,1.19,2.06v11.25a2.38,2.38,0,0,0,3.56,2.07l23.71-13.8a4.75,4.75,0,0,0,2.37-4.12v-11a4.75,4.75,0,0,0-2.37-4.12l-39.32-22.83a4.69,4.69,0,0,0-2.38-.63ZM302.81,385.9a1.31,1.31,0,0,1,.63.16L317,393.91a1.23,1.23,0,0,1,.63,1v15.69a1.21,1.21,0,0,1-.63,1l-13.56,7.85a1.2,1.2,0,0,1-1.19,0l-13.55-7.85a1.22,1.22,0,0,1-.64-1V394.94a1.22,1.22,0,0,1,.64-1l13.55-7.85a1,1,0,0,1,.56-.16Z" transform="translate(-21.55 -294.26)" style={{fill: '#404137'}} />
    <path id="path28" d="M539.59,350.71a7.75,7.75,0,0,0-3.88,1l-37.34,21.56a7.86,7.86,0,0,0-3.89,6.82v43a7.87,7.87,0,0,0,3.89,6.82l9.75,5.63c4.74,2.33,6.48,2.3,8.64,2.3,7,0,11-4.26,11-11.66V383.68a1.07,1.07,0,0,0-1.11-1H522a1.06,1.06,0,0,0-1.11,1v42.49c0,3.28-3.41,6.58-9,3.81l-10.14-6a1.12,1.12,0,0,1-.64-.95V380a1.25,1.25,0,0,1,.64-1L539,357.52a1.1,1.1,0,0,1,1.11,0L577.4,379a1.25,1.25,0,0,1,.64,1v43a1.2,1.2,0,0,1-.56,1l-37.34,21.48a1.15,1.15,0,0,1-1.11,0l-9.59-5.7a1,1,0,0,0-1,0,24.54,24.54,0,0,1-5.63,2.53c-.61.22-1.54.55.32,1.59l12.53,7.37a7.82,7.82,0,0,0,7.76,0l37.34-21.48a7.89,7.89,0,0,0,3.89-6.82V380a7.87,7.87,0,0,0-3.89-6.82l-37.34-21.56a7.75,7.75,0,0,0-3.88-1Zm-355.14.87a4.75,4.75,0,0,0-2.37.63L142.52,375a4.88,4.88,0,0,0-2.38,4.2v45.66a4.76,4.76,0,0,0,2.38,4.13l39.56,22.83a4.74,4.74,0,0,0,4.75,0L226.39,429a4.78,4.78,0,0,0,2.38-4.13V379.16a4.88,4.88,0,0,0-2.38-4.2l-39.56-22.75A4.79,4.79,0,0,0,184.45,351.58Zm410.55.24v1.11h3.09v8.16h1.27v-8.16h3.17v-1.11Zm8.64,0v9.27h1.19v-5.47c0-.22,0-.57,0-1s0-.88,0-1.11v-.24l2.62,7.85h1.26l2.7-7.85c0,.5-.07,1-.08,1.43v6.42h1.19v-9.27h-1.74l-2.7,7.84-2.62-7.84Zm-54.06,29.64c-10.63,0-17,4.53-17,12.05,0,8.17,6.29,10.41,16.49,11.42,12.21,1.19,13.16,3,13.16,5.39,0,4.17-3.32,5.94-11.18,5.94-9.86,0-12-2.46-12.76-7.37a1.07,1.07,0,0,0-1-.95h-4.83a1.13,1.13,0,0,0-1.11,1.11c0,6.28,3.41,13.71,19.73,13.71,11.82,0,18.63-4.63,18.63-12.76s-5.5-10.22-17-11.73-12.68-2.28-12.68-5c0-2.24.93-5.24,9.51-5.24,7.66,0,10.49,1.66,11.65,6.82a1.08,1.08,0,0,0,1,.87h4.84a1.2,1.2,0,0,0,.79-.39,1.06,1.06,0,0,0,.32-.8c-.75-8.89-6.68-13.08-18.63-13.08ZM421,392.32a1,1,0,0,0-.48.08l-7.61,4.44a.93.93,0,0,0-.47.79v8.72a1,1,0,0,0,.47.8l7.61,4.36a.87.87,0,0,0,.88,0l7.61-4.36a1,1,0,0,0,.47-.8v-8.72a1,1,0,0,0-.47-.79l-7.61-4.44A.7.7,0,0,0,421,392.32Z" transform="translate(-21.55 -294.26)" style={{fill: '#83cd29'}} />
  </g>
</svg>
