<svg id="php" xmlns="http://www.w3.org/2000/svg" width="144" height="72" viewBox="0 0 800.02 399.98">
  <title>phpLogo</title>
  <g id="g4">
    <g id="g6">
      <path id="path8" d="M86.63,685.11H205.27q52.24.43,75.71,29.95t15.49,80.62a154.32,154.32,0,0,1-13.72,45.81A136.18,136.18,0,0,1,254.41,882Q232.29,904.93,207,911.1a219.25,219.25,0,0,1-52.23,6.16H101.68L84.86,1001H23.32L86.63,685.11m51.8,50.22L111.86,867.48a31.93,31.93,0,0,0,5.32.45h6.19q42.51.44,70.84-8.37,28.32-9.25,38.07-64.32,8-46.26-15.94-53.31-23.46-7-58.88-6.6-5.31.43-10.18.44H138l.45-.44" transform="translate(-23.32 -600.99)"/>
      <path id="path10" d="M366.58,601h61.1l-17.27,84.14H465.3q45.17.89,67.29,18.5,22.59,17.63,13.29,67l-29.66,146.7h-62L482.57,777.2q4.43-22-2.66-31.28t-30.54-9.25l-49.14-.44-36.3,181.06h-61.1L366.58,601" transform="translate(-23.32 -600.99)"/>
      <path id="path12" d="M611.49,685.11H730.13q52.25.43,75.7,29.95t15.5,80.62a154,154,0,0,1-13.73,45.81A136.15,136.15,0,0,1,779.27,882q-22.14,22.9-47.37,29.08a219.27,219.27,0,0,1-52.24,6.16H626.54L609.72,1001H548.18l63.31-315.86m51.79,50.22L636.72,867.48a31.72,31.72,0,0,0,5.31.45h6.2q42.49.44,70.83-8.37,28.34-9.25,38.07-64.32,8-46.26-15.93-53.31-23.46-7-58.88-6.6c-3.54.29-6.94.44-10.18.44h-9.3l.44-.44" transform="translate(-23.32 -600.99)"/>
    </g>
  </g>
</svg>
