<svg id="pythonLogo" xmlns="http://www.w3.org/2000/svg" xmlns:xlink="http://www.w3.org/1999/xlink" width="144" height="72" viewBox="0 0 474.8 137.8">
  <defs>
    <linearGradient id="linear-gradient" x1="372.73" y1="678.08" x2="481.74" y2="584.29" gradientTransform="matrix(0.56, 0, 0, -0.57, 47.03, 522.57)" gradientUnits="userSpaceOnUse">
      <stop offset="0" stop-color="#5a9fd4"/>
      <stop offset="1" stop-color="#306998"/>
    </linearGradient>
    <linearGradient id="linear-gradient-2" x1="523.89" y1="527.52" x2="484.96" y2="582.6" gradientTransform="matrix(0.56, 0, 0, -0.57, 47.03, 522.57)" gradientUnits="userSpaceOnUse">
      <stop offset="0" stop-color="#ffd43b"/>
      <stop offset="1" stop-color="#ffe873"/>
    </linearGradient>
    <radialGradient id="radial-gradient" cx="-871.53" cy="902.34" r="29.04" gradientTransform="matrix(0, -0.24, -1.05, 0, 1266.92, 52.81)" gradientUnits="userSpaceOnUse">
      <stop offset="0" stop-color="#b8b8b8" stop-opacity="0.5"/>
      <stop offset="1" stop-color="#7f7f7f" stop-opacity="0"/>
    </radialGradient>
  </defs>
  <title>pythonLogo</title>
  <g id="g2303">
    <path id="path46" d="M438.46,189.77q0-21.86-12.46-22.45a23.33,23.33,0,0,0-9.67,1.59,14.12,14.12,0,0,0-5.08,2.68v34.75q8,5,14.15,4.64Q438.45,210.13,438.46,189.77Zm10.24.6q0,11.1-5.22,18.42a19.27,19.27,0,0,1-16.17,8.53q-7.8.26-16.06-4.87V244l-8.91-3.18V170.74A20.18,20.18,0,0,1,408,166.1q7.95-4.64,19.33-4.76l.12.13a17.75,17.75,0,0,1,16,8.53Q448.7,177.94,448.7,190.37Z" transform="translate(-259.43 -131.1)" style="fill: #646464"/>
    <path id="path48" d="M503.15,211.1q0,14.88-3,20.62t-11.41,9.14A43.62,43.62,0,0,1,474,243.79l-1.47-5.61A71.26,71.26,0,0,0,483.87,236c4.32-1.47,7.28-3.71,8.91-6.71q2-3.67,2-14v-2.32a45.8,45.8,0,0,1-19.16,4.15A17.63,17.63,0,0,1,464,212.93a14.09,14.09,0,0,1-5.61-11.46V164.39l8.91-3v37.32q0,6,3.86,9.22a14.58,14.58,0,0,0,10,3.1c4.08-.08,8.46-1.66,13.11-4.75V162.69h8.91Z" transform="translate(-259.43 -131.1)" style="fill: #646464"/>
    <path id="path50" d="M537.93,216.83c-1.07.09-2,.13-2.94.13q-7.56,0-11.77-3.61t-4.2-10V168.29h-6.11v-5.6H519V147.8l8.89-3.16v18.05h10v5.6h-10v34.85c0,3.34.9,5.71,2.7,7.09,1.54,1.14,4,1.8,7.32,2Z" transform="translate(-259.43 -131.1)" style="fill: #646464"/>
    <path id="path52" d="M591.87,216.1H583V181.71a16.21,16.21,0,0,0-2.45-9,8.89,8.89,0,0,0-7.85-4.27q-6.12,0-15.32,6.46V216.1h-8.91V133.9l8.91-2.8v37.44A31,31,0,0,1,576,162.32a14.9,14.9,0,0,1,11.46,4.75,16.79,16.79,0,0,1,4.4,11.84V216.1Z" transform="translate(-259.43 -131.1)" style="fill: #646464"/>
    <path id="path54" d="M639.22,188.36c0-5.59-1.07-10.21-3.18-13.87a13.33,13.33,0,0,0-11.71-7.05q-14.64.85-14.64,21,0,9.22,3.06,15.41c2.62,5.25,6.53,7.85,11.76,7.76Q639.21,211.47,639.22,188.36Zm9.75.06q0,11.94-6.1,19.88-6.71,8.89-18.54,8.9T606,208.3q-6-7.94-6-19.88,0-11.23,6.47-18.91a22.25,22.25,0,0,1,17.93-8.17,22.63,22.63,0,0,1,18.06,8.17Q649,177.21,649,188.42Z" transform="translate(-259.43 -131.1)" style="fill: #646464"/>
    <path id="path56" d="M700.05,216.1h-8.91V179.76q0-6-3.6-9.33T678,167.2a21.46,21.46,0,0,0-12.08,4.14V216.1H657V170.24q7.68-5.6,14.15-7.31a43.26,43.26,0,0,1,10.74-1.59,27.92,27.92,0,0,1,6,.62,17.22,17.22,0,0,1,8.53,4.51,11.94,11.94,0,0,1,3.67,8.78Z" transform="translate(-259.43 -131.1)" style="fill: #646464"/>
    <path id="path1948" d="M314.35,134.23a77.62,77.62,0,0,0-12.81,1.1c-11.35,2-13.41,6.2-13.41,13.94v10.21H315v3.41H278.07c-7.79,0-14.61,4.68-16.75,13.59-2.46,10.22-2.57,16.59,0,27.25,1.91,7.94,6.46,13.6,14.25,13.6h9.22V205.08a17,17,0,0,1,16.75-16.66h26.78a13.51,13.51,0,0,0,13.41-13.62V149.27c0-7.27-6.13-12.73-13.41-13.94A83.34,83.34,0,0,0,314.35,134.23Zm-14.5,8.22a5.11,5.11,0,1,1-5,5.13A5.09,5.09,0,0,1,299.85,142.45Z" transform="translate(-259.43 -131.1)" style="fill: url(#linear-gradient)"/>
    <path id="path1950" d="M345.07,162.89V174.8c0,9.23-7.82,17-16.75,17H301.54a13.67,13.67,0,0,0-13.41,13.62V231c0,7.27,6.32,11.54,13.41,13.63a45,45,0,0,0,26.78,0c6.75-2,13.41-5.89,13.41-13.63V220.73H315v-3.4h40.18c7.8,0,10.7-5.44,13.41-13.6,2.8-8.4,2.68-16.47,0-27.25-1.93-7.75-5.6-13.59-13.41-13.59ZM330,227.55a5.11,5.11,0,1,1-5,5.09A5.05,5.05,0,0,1,330,227.55Z" transform="translate(-259.43 -131.1)" style="fill: url(#linear-gradient-2)"/>
    <path id="text3004" d="M717.4,154.75H719V145h3.7v-1.17h-9V145h3.7v9.8m6.64,0h1.34V145.8l2.89,8.94h1.49l3-8.91v8.92h1.45v-11h-1.92l-3.3,9.39-2.81-9.39H724v11" transform="translate(-259.43 -131.1)" style="fill: #646464"/>
    <path id="path1894" d="M351.18,261.93c0,3.85-16.09,7-35.93,7s-35.93-3.12-35.93-7,16.09-7,35.93-7S351.18,258.09,351.18,261.93Z" transform="translate(-259.43 -131.1)" style="opacity: 0.44382017850875854;isolation: isolate;fill: url(#radial-gradient)"/>
  </g>
</svg>
