<svg id="ArchLinuxLogo" xmlns="http://www.w3.org/2000/svg" width="354.77" height="264.28" viewBox="0 0 354.77 264.28">
  <title>archLinuxLogo</title>
  <path d="M251.67,912.92c-8.77,21.48-14.06,35.56-23.82,56.4a154.33,154.33,0,0,0,25.25,22c-12.82-5.28-21.55-10.54-28.09-16-12.49,26.06-32.08,63.14-71.78,134.47,31.2-18,55.4-29.1,77.94-33.34a57,57,0,0,1-1.47-13.38l0-1c.49-20,10.9-35.38,23.22-34.34s21.9,18.13,21.4,38.12a56.12,56.12,0,0,1-1.25,10.72c22.29,4.37,46.24,15.43,77,33.19-6.07-11.17-11.51-21.22-16.68-30.81-8.15-6.32-16.63-14.54-34-23.44,11.91,3.1,20.47,6.66,27.12,10.66-52.6-97.93-56.87-111-74.9-153.28Zm6,198.2,5.48-1.35-.67,64.65-5.56.94.75-64.24Zm14.57,19.3,4.81-2.12-.62,46.36-4.63.95.44-45.19Zm-.9-16.72,3.9-3.13,3.15,3.55-3.9,3.21ZM286,1129.57l5.47-1.1-.11,9.69c0,.42,3.15-10.83,17.61-10.58,14,.08,16.18,10.88,16.06,13.3l-.31,34.08-4.8,1,.45-33.66c.07-1-2.05-9.29-12-9.32s-16.89,7.16-16.94,11.75l-.35,29.65-5.56,1.44.45-46.28Zm86.36,45.64-5.48,1.1.12-9.69c0-.41-3.16,10.83-17.61,10.58-14-.08-16.18-10.88-16.07-13.3l.32-34.08,5.81-1.16-.39,33.66c0,.92,1,9.43,10.9,9.46s16.95-5.94,17.12-14.92l.31-26.56,5.42-1.37-.45,46.28Zm11.35-46-3.87,3,14.41,19.09-16,22.06,4,3,15-20.48,14.89,21,3.8-3-16-22.42,13.24-18.13-3.94-3.36-12.07,16.78-13.56-17.5Zm39.47,43v-4.13h-1.53v-.55h3.68v.55h-1.53v4.13Zm2.79,0v-4.68h.93l1.09,3.31c.11.31.18.54.22.69.06-.17.14-.41.26-.74l1.1-3.26h.83v4.68h-.59v-3.91l-1.35,3.91H428l-1.35-4v4Zm-78-78.65v-4.12h-1.53v-.55h3.68v.55h-1.54v4.12Zm2.47,0v-4.67h.92l1.1,3.31.22.69c.05-.17.14-.41.25-.74l1.11-3.26h.82v4.67h-.58v-3.91l-1.36,3.91h-.55l-1.34-4v4Z" transform="translate(-75.67 -912.92)" style="fill: #1793d1"/>
  <path d="M98.72,1123.94a49.22,49.22,0,0,0-14.9,2.19l-2.29,12.36s11.39-3,16.41-2.86c8.31.3,9.08,3.18,8.93,7.06.15.23-2.14-3.51-9.33-3.64-9.08-.15-21.88,3.22-21.86,16.91-.25,15.41,11.5,19.94,19.51,20,7.19-.13,10.57-2.72,12.42-4.11,2.42-2.54,5.2-5.09,7.85-8.16a48.83,48.83,0,0,1-6.94,10.12v2l10.94-1.84.07-29.73c-.11-4.21,2.42-20.31-20.81-20.35Zm-1.57,25.89c4.53.06,9.73,2.29,9.74,7.67,0,4.9-6.13,7.53-10.13,7.48s-9.31-3.14-9.34-7.91c.08-4.26,5-7.35,9.73-7.24Zm29.59-23.14-.07,49.23,12.74-2.45,0-27.92c0-4.15,5.94-9,13.39-8.93,1.58-2.86,4.55-10.17,5.28-11.84-16.64,0-16.85,4.79-19.75,7.16,0-4.53,0-7.24,0-7.24l-11.6,2Zm71.71,6.46c-.12-.05-6.64-7.63-19.76-7.69-12.28-.2-26.05,4.56-26.28,25.16.11,18.1,13.24,25.18,26.35,25.32,14,.14,19.62-8.78,20-9-1.68-1.45-7.95-7.67-7.95-7.67a14.87,14.87,0,0,1-11.52,5.65,14.12,14.12,0,0,1-14.3-14.17c-.1-8.3,6.07-12.8,14.36-13.16a16,16,0,0,1,11.31,4.63Zm16.06-23.69-12,2.83.09,64.13,11.85-2.14.14-30.18c0-3.17,4.57-8,12.18-7.87,7.26.07,8.89,4.84,8.87,5.44l.21,34.94,11.68-2.06.05-37c.07-3.57-7.81-11.09-20.49-11.15-6,0-9.36,1.38-11.05,2.38-2.91,2.24-6.23,4.39-9.49,7.14a51.28,51.28,0,0,1,8-8.55l0-17.86Z" transform="translate(-75.67 -912.92)" style="fill: #4d4d4d"/>
</svg>
