<svg id="DebianLogo" xmlns="http://www.w3.org/2000/svg" width="144" height="72" viewBox="0 0 87.13 108.45">
  <title>DebianLogo</title>
  <g>
    <path d="M561.24,186.62c-1.8,0,.34.92,2.69,1.28.64-.5,1.23-1,1.76-1.51a13.56,13.56,0,0,1-4.45.23" transform="translate(-509.17 -129.32)" style="fill: #a80030"/>
    <path d="M570.89,184.21a11.29,11.29,0,0,0,2.12-4.76,11.53,11.53,0,0,1-1.5,3.3c-3.35,2.12-.31-1.25,0-2.53-3.61,4.54-.49,2.72-.62,4" transform="translate(-509.17 -129.32)" style="fill: #a80030"/>
    <path d="M574.45,175c.21-3.24-.64-2.21-.93-1,.34.17.6,2.28.93,1" transform="translate(-509.17 -129.32)" style="fill: #a80030"/>
    <path d="M554.43,130.72c1,.17,2.07.3,1.91.53,1-.23,1.29-.44-1.91-.53" transform="translate(-509.17 -129.32)" style="fill: #a80030"/>
    <path d="M556.34,131.25l-.68.14.64,0,0-.09" transform="translate(-509.17 -129.32)" style="fill: #a80030"/>
    <path d="M586.25,176.18c.1,2.9-.85,4.31-1.72,6.81l-1.55.77c-1.27,2.47.12,1.57-.79,3.53-2,1.77-6,5.52-7.31,5.87-.94,0,.64-1.12.85-1.54-2.66,1.82-2.13,2.73-6.2,3.84l-.12-.26c-10,4.71-23.93-4.63-23.75-17.37-.1.81-.3.6-.52.93a16,16,0,0,1,9-15.83,15.19,15.19,0,0,1,16.9,2.2,15,15,0,0,0-12.31-5.91c-5.32.08-10.29,3.46-12,7.13-2.73,1.71-3,6.61-4.23,7.5-1.6,11.74,3,16.81,10.79,22.78,1.22.82.34,1,.51,1.58a21,21,0,0,1-6.9-5.28,18.67,18.67,0,0,0,3.59,4.14c-2.44-.83-5.7-5.91-6.65-6.12,4.2,7.53,17.05,13.2,23.78,10.38a28,28,0,0,1-10.57-1.22c-1.46-.76-3.46-2.33-3.11-2.62,9.19,3.43,18.67,2.6,26.62-3.77,2-1.57,4.23-4.25,4.86-4.29-1,1.45.17.7-.57,2,2-3.25-.88-1.32,2.08-5.61l1.09,1.51c-.4-2.7,3.35-6,3-10.24.86-1.3,1,1.41.05,4.41,1.27-3.33.33-3.87.66-6.61a25.86,25.86,0,0,1,1,2.87c-.83-3.21.85-5.41,1.26-7.28-.41-.18-1.27,1.42-1.47-2.38,0-1.65.46-.86.62-1.27-.32-.18-1.17-1.45-1.69-3.88.38-.57,1,1.48,1.51,1.57a38.49,38.49,0,0,1-.91-4.88c-1.49-3.12-.53.41-1.74-1.34-1.58-5,1.32-1.15,1.51-3.4,2.41,3.49,3.78,8.88,4.41,11.12a45.07,45.07,0,0,0-2.21-7.92c.73.31-1.17-5.61.95-1.69-2.27-8.35-9.71-16.16-16.56-19.82.84.77,1.9,1.73,1.52,1.88-3.41-2-2.81-2.19-3.3-3-2.77-1.13-3,.09-4.79,0-5.23-2.77-6.24-2.48-11.06-4.22l.22,1c-3.46-1.16-4,.43-7.78,0-.23-.18,1.2-.64,2.38-.82-3.35.45-3.2-.66-6.47.13a26,26,0,0,1,2.52-1.43c-2.73.17-6.52,1.59-5.35.3-4.46,2-12.37,4.78-16.81,8.94l-.14-.93c-2,2.44-8.88,7.29-9.42,10.46l-.55.12a59.7,59.7,0,0,0-2.58,5.67c-1.39,2.36-2,.91-1.83,1.28a86.3,86.3,0,0,0-5.25,14c.83,1.25,0,7.5.34,12.5-1.37,24.7,17.33,48.69,37.78,54.23,3,1.07,7.45,1,11.25,1.14-4.48-1.28-5.06-.68-9.41-2.2-3.15-1.48-3.83-3.17-6.06-5.1l.88,1.56c-4.37-1.55-2.54-1.92-6.09-3l.94-1.23c-1.41-.11-3.75-2.38-4.39-3.65l-1.54.07c-1.86-2.3-2.85-4-2.78-5.23l-.5.89c-.57-1-6.85-8.61-3.59-6.83a7.42,7.42,0,0,1-2.28-2.49l.66-.76c-1.56-2-2.88-4.6-2.78-5.46a3.55,3.55,0,0,0,2,1.54c-4-9.82-4.18-.54-7.18-10l.64-.05a21.82,21.82,0,0,1-1.18-2.31l.28-2.75c-2.85-3.29-.8-14-.39-19.88.29-2.39,2.38-4.93,4-8.92l-1-.16c1.86-3.24,10.59-13,14.63-12.49,2-2.46-.38,0-.77-.63,4.31-4.45,5.66-3.14,8.56-4,3.13-1.85-2.69.73-1.2-.7,5.41-1.39,3.84-3.15,10.9-3.85.74.42-1.73.65-2.35,1.2,4.51-2.2,14.27-1.7,20.62,1.23,7.36,3.44,15.62,13.6,16,23.17l.37.1c-.19,3.8.58,8.2-.75,12.24l.91-1.91" transform="translate(-509.17 -129.32)" style="fill: #a80030"/>
    <path d="M541.63,189.08l-.26,1.26c1.19,1.61,2.12,3.35,3.63,4.6-1.08-2.12-1.89-3-3.37-5.86" transform="translate(-509.17 -129.32)" style="fill: #a80030"/>
    <path d="M544.42,189a9.65,9.65,0,0,1-1.41-2.35,16.56,16.56,0,0,0,2,4l-.55-1.63" transform="translate(-509.17 -129.32)" style="fill: #a80030"/>
    <path d="M593.82,178.24l-.26.66a32.09,32.09,0,0,1-3.13,10,31.43,31.43,0,0,0,3.39-10.65" transform="translate(-509.17 -129.32)" style="fill: #a80030"/>
    <path d="M554.78,129.86c1.22-.45,3-.25,4.28-.54-1.68.14-3.35.22-5,.44l.73.1" transform="translate(-509.17 -129.32)" style="fill: #a80030"/>
    <path d="M512.13,152.54c.28,2.59-1.95,3.6.49,1.89,1.31-3-.51-.82-.49-1.89" transform="translate(-509.17 -129.32)" style="fill: #a80030"/>
    <path d="M509.25,164.53a26.08,26.08,0,0,0,.88-3.76c-1.55,2-.71,2.41-.88,3.76" transform="translate(-509.17 -129.32)" style="fill: #a80030"/>
  </g>
</svg>
