<svg id="getFedoraLogo" xmlns="http://www.w3.org/2000/svg" width="144" height="72" viewBox="0 0 266.25 266.25">
  <title>getFedora</title>
  <path id="voice" d="M835.74,1011.36a133.13,133.13,0,0,0-266.25-.09v103a30.26,30.26,0,0,0,30.27,30.19H702.67a133.12,133.12,0,0,0,133.07-133.12" transform="translate(-569.49 -878.23)" style="fill: #294172"/>
  <path id="in" d="M646.25,1020h47.84v47.85A47.85,47.85,0,1,1,646.25,1020Z" transform="translate(-569.49 -878.23)" style="fill: none;stroke: #3c6eb4;stroke-width: 29.209999084472656px"/>
  <g id="finity">
    <path id="in-2" data-name="in" d="M741.7,1020.05H693.86V972.2a47.85,47.85,0,1,1,47.84,47.85Z" transform="translate(-569.49 -878.23)" style="fill: none;stroke: #3c6eb4;stroke-width: 29.209999084472656px"/>
  </g>
  <path id="free" d="M708.73,1005.38v62.35a62.49,62.49,0,0,1-62.48,62.48,49.62,49.62,0,0,1-13.81-1.86c-7.06-1.85-12.84-7.64-12.84-14.38,0-8.14,5.91-14.07,14.75-14.07,4.21,0,5.73.81,11.9.81a33,33,0,0,0,33-32.93v-28.65a4.66,4.66,0,0,0-4.66-4.65H652.9a14.55,14.55,0,1,1,.16-29.09" transform="translate(-569.49 -878.23)" style="fill: #fff"/>
  <g id="dom">
    <path id="free-2" data-name="free" d="M679.22,1034.61V972.27a62.48,62.48,0,0,1,62.48-62.48,49.62,49.62,0,0,1,13.81,1.86c7.06,1.85,12.84,7.64,12.84,14.38,0,8.14-5.91,14.07-14.75,14.07-4.21,0-5.73-.81-11.9-.81a33,33,0,0,0-33,32.93v28.65a4.66,4.66,0,0,0,4.66,4.65h21.67a14.54,14.54,0,1,1-.16,29.08" transform="translate(-569.49 -878.23)" style="fill: #fff"/>
  </g>
  <path id="TM" d="M812.77,1121.44v-5.53l-2.53,5.8-2.46-5.8v5.53h-1.41v-8.74h1.48l2.44,5.59,2.39-5.59h1.51v8.74Zm-10.33-7.27v7.27H801v-7.27h-2.49v-1.47h6.45v1.47" transform="translate(-569.49 -878.23)" style="fill: #3c6eb4"/>
</svg>
