<svg id="RedHatLogo" xmlns="http://www.w3.org/2000/svg" width="144" height="72" viewBox="0 0 470.78 163.78">
  <title>RedHatLogo</title>
  <g id="layer1">
    <path id="path3262" d="M594.71,679.81a38.43,38.43,0,0,0-9.22-1.18,35,35,0,0,0-13.93,2.62,1.32,1.32,0,0,0-.68,1.17,1.36,1.36,0,0,0,.11.53c.42,1.33-.28,2.77-3.78,3.6-5.2,1.23-8.48,7-10.36,8.89-2.21,2.25-8.43,3.63-7.5,2.29a48.57,48.57,0,0,0,5.24-7.84c1.53-3.15,2.89-4.06,4.76-7.06.54-.88,2.67-4,3.29-6.44s.46-5.4.73-6.64c.38-1.79,2-5.66,2.07-7.85.07-1.23-4.81,1.77-7.13,1.77s-4.57-1.49-6.64-1.6c-2.56-.13-4.21,2.12-6.52,1.73-1.32-.23-2.44-1.48-4.75-1.57-3.29-.13-7.31,2-14.87,1.7s-14.29-10.08-15.23-11.64c-1.1-1.83-2.44-1.83-3.9-.39a2.4,2.4,0,0,1-3.78-.66c-1-1.83-3.58-7.18-7.61-8.3-5.59-1.55-8.41,3.32-8.05,7.19s2.75,5,3.84,7.13,1.66,3.44,3.72,4.37c1.47.65,2,1.62,1.58,2.91-.39,1.12-1.91,1.38-2.91,1.43a7.33,7.33,0,0,1-4.7-1.25,10.85,10.85,0,0,1-3.4-4.11,6.14,6.14,0,0,0-5.63-3.24,6.4,6.4,0,0,0-3.09.83,26,26,0,0,1-12.75,3.27h-5.3c10.17,32.39,38.71,55.72,72.33,55.72,26.85,0,50.46-14.89,64.06-37.38" transform="translate(-454.33 -553.41)" style="fill: #fff"/>
    <path id="path3248" d="M530.67,553.41c-42.15,0-76.34,36.69-76.34,81.91a87.19,87.19,0,0,0,4,26.16h5.29a26.34,26.34,0,0,0,12.76-3.32,6.33,6.33,0,0,1,3.1-.83,6.26,6.26,0,0,1,5.67,3.32,10.39,10.39,0,0,0,3.36,4,7.14,7.14,0,0,0,4.64,1.25c1-.06,2.58-.27,3-1.39.44-1.29-.08-2.25-1.54-2.9-2.07-.93-2.65-2.2-3.74-4.29s-3.5-3.27-3.87-7.2,2.41-8.75,8-7.19c4,1.11,6.64,6.47,7.61,8.3.51,1,2.41,2.13,3.87.69s2.77-1.42,3.87.41c.93,1.57,7.78,11.37,15.21,11.63s11.54-1.93,14.83-1.8c2.31.09,3.45,1.43,4.77,1.66,2.32.39,4-1.93,6.58-1.8,2.07.11,4.26,1.66,6.57,1.66s7.29-3,7.23-1.8c-.12,2.19-1.68,6.11-2.07,7.89-.26,1.24-.08,4.24-.77,6.64s-2.81,5.48-3.35,6.37c-1.87,3-3.12,3.9-4.65,7.05a49.83,49.83,0,0,1-5.28,7.89c-.94,1.34,5.27-.11,7.48-2.35,1.88-1.91,5.11-7.63,10.31-8.86,3.51-.82,4.3-2.26,3.87-3.59a1.48,1.48,0,0,1-.13-.56,1.19,1.19,0,0,1,.65-1.1,35,35,0,0,1,13.92-2.63,39.51,39.51,0,0,1,9.29,1.1A85.6,85.6,0,0,0,607,635.32C607,590.1,572.81,553.41,530.67,553.41ZM770.25,597v31.42h-.13c-2.34-4.15-7.54-7.2-14.7-7.2-12.57,0-23.55,11.09-23.47,29.89,0,17.24,9.95,28.64,22.44,28.64,7.54,0,13.77-3.81,16.89-10.1h.26l.64,8.86h11.74c-.24-3.82-.39-9.9-.39-15.64V600.73Zm25,7.2V678.5h5.15V644.73a17.07,17.07,0,0,1,.65-5.53c2.2-6.88,8.3-12.45,15.6-12.45,10.55,0,14.18,9.13,14.18,19.09V678.5H836V645.15c0-20.6-13-23.25-17.92-23.25a18.91,18.91,0,0,0-10.45,3.18,19.69,19.69,0,0,0-7,8h-.26v-27.4ZM902,611l-5.16,2.08v10.24h-8.64v4.42h8.64v34.87c0,5.65.89,10.38,3.23,13.29,2,2.65,5.13,3.87,8.89,3.87a17.15,17.15,0,0,0,7.1-1.38l-.65-4.15a16.61,16.61,0,0,1-5.8.83c-5.53,0-7.61-4.45-7.61-11.49V627.71h14.7v-4.42H902ZM704,621.07c-16.81,0-25.53,14.68-25.53,30.17,0,17.19,10,28.36,26.95,28.36a45,45,0,0,0,18.31-3.45l-2.06-9.83A37.33,37.33,0,0,1,707.2,669c-8.47,0-15.77-4.5-16.12-14.67l34.94.14a32.59,32.59,0,0,0,.52-6.09C726.54,636.05,721,621.07,704,621.07Zm-32,.14c-5.64,0-11.74,4-14.31,11.9h-.26l-.51-10.65H645.43c.28,5,.39,10.47.39,18l-.13,38.06H659V649.44a24.31,24.31,0,0,1,.39-4.29c1.18-6.43,5.56-10.66,11.86-10.66a17.62,17.62,0,0,1,3.87.28V621.49A11.57,11.57,0,0,0,672,621.21Zm192,.69a26.26,26.26,0,0,0-15.08,4.85l1.54,4a21.8,21.8,0,0,1,13-4.15c12.19-.09,13.15,10.85,13.15,16.33v1.38c-21-.24-31.46,7.44-31.46,20.2,0,7.38,4.84,15.22,15.21,15.22a19,19,0,0,0,16.38-9.13H877l.77,7.89h4.64a97,97,0,0,1-.77-13.15V643.77C881.66,633.88,878.87,621.9,864,621.9ZM703.2,630.76c8.85,0,11,8.5,11,13.7H691.08C691.67,638.71,695.06,630.76,703.2,630.76Zm55.44,1.38c6,0,10.18,4.5,11.35,10a20.58,20.58,0,0,1,.26,3.74v8.3a17.58,17.58,0,0,1-.39,4.15c-1.33,6.14-5.94,10.11-11.34,10.11-8.33,0-13.16-7.54-13.16-17.85S750.13,632.14,758.64,632.14ZM872.25,649c1.47,0,3,0,4.38,0v11.77a11.14,11.14,0,0,1-.52,3.32,15.84,15.84,0,0,1-15.34,11.2c-5.37,0-10.19-3.67-10.19-11.62C850.58,652.07,861.89,649.32,872.25,649ZM547.18,672.27a15,15,0,0,1-2.2,2.35c-1.72,1.49-3.64-.31-4.9-1.1-2.8-1.77-5.12-.54-5.67.83s0,3,1.55,2.76c2.13-.29,2.32.06,3.87,1.11,2.87,2,5,.92,6.06,0a6.64,6.64,0,0,0,1.8-2.35,3.34,3.34,0,0,0-.26-3.6s-.06,0-.13,0S547.22,672.22,547.18,672.27Zm375.48,1a2.57,2.57,0,0,0-2.45,2.63,2.45,2.45,0,1,0,4.9,0A2.57,2.57,0,0,0,922.66,673.24Zm0,.41a2.1,2.1,0,0,1,1.94,2.22,1.94,1.94,0,1,1-3.87,0A2.1,2.1,0,0,1,922.66,673.65Zm-318.23.42a2.25,2.25,0,0,0-2.07,2.35,2.07,2.07,0,1,0,4.13,0A2.24,2.24,0,0,0,604.43,674.07Zm0,.41a1.83,1.83,0,0,1,1.67,1.94,1.7,1.7,0,0,1-1.67,1.8,1.81,1.81,0,0,1-1.81-1.8A1.94,1.94,0,0,1,604.43,674.48Zm317.46,0v2.63h.39V676h.38l.65,1.1h.38l-.64-1.1a.77.77,0,0,0,.64-.83c0-.53-.32-.7-.9-.7Zm.39.28h.51c.26,0,.52.09.52.42s-.33.41-.65.41h-.38Zm-318.63.42v2.35H604v-1h.39l.51,1h.39l-.65-1a.71.71,0,0,0,.65-.69c0-.46-.27-.69-.77-.69Zm.39.27h.39a.47.47,0,0,1,.51.42c0,.35-.24.41-.51.41H604Z" transform="translate(-454.33 -553.41)" style="fill: #0f0f10"/>
    <path id="path3266" d="M573.71,613.51c-.76,2.72-1.83,6.2-6.6,8.83-.7.38-1-.25-.64-.84a41.79,41.79,0,0,0,2.65-5.41c.73-1.9,1.11-4.6-.34-10.23-2.87-11.08-8.86-25.9-13.21-30.7-4.2-4.64-11.81-5.94-18.69-4-2.53.7-7.49,3.46-16.68,1.24-15.9-3.84-18.26,4.7-19.17,8.43s-3.11,14.3-3.11,14.3c-.73,4.31-1.68,11.81,23,16.85,11.51,2.36,12.09,5.55,12.6,7.84.91,4.12,2.38,6.47,4,7.65s0,2.15-1.83,2.35c-4.9.54-23-5-33.72-11.56-8.76-5.75-8.91-10.93-6.91-15.32-13.24-1.54-23.17,1.33-25,8.06-3.1,11.54,23.65,31.26,54.1,41.16,32,10.38,64.82,3.13,68.48-18.42C594.36,623.89,586.67,616.65,573.71,613.51ZM534,576.77h0a.25.25,0,0,1-.25-.24.26.26,0,0,1,.14-.23,19.4,19.4,0,0,1,7.18-2.06c.87-.09,1.73-.14,2.55-.15H544c4.89.12,8.8,2.21,8.74,4.66s-4.06,4.35-9,4.23a16,16,0,0,1-4.34-.68.36.36,0,0,1,0-.69c3.05-.76,5.11-2,5-3.16-.19-1.56-4.18-2.4-8.91-1.89C535,576.62,534.46,576.69,534,576.77Zm-9.26,15.63c-8.82.69-9.73,1.71-11.38,3.59-2.33,2.66-5.4-3.45-5.4-3.45-1.84-.41-4.07-3.6-2.87-6.57s3.38-2.06,4.07-1.15c.83,1.12,2.61,2.94,4.93,2.88s5-.59,8.7-.59,6.31,1.51,6.45,2.81c.12,1.11-.3,2.15-4.5,2.48" transform="translate(-454.33 -553.41)" style="fill: #c00"/>
  </g>
</svg>
