<svg id="UbuntuLogo" xmlns="http://www.w3.org/2000/svg" width="144" height="72" viewBox="0 0 283.46 283.46">
  <title>UbuntuLogo</title>
  <g>
    <path d="M350.21,653.51A141.74,141.74,0,1,1,208.48,511.79,141.73,141.73,0,0,1,350.21,653.51Z" transform="translate(-66.74 -511.79)" style="fill: #e95420"/>
    <path d="M134.92,653.51a18.23,18.23,0,1,1-18.23-18.21A18.23,18.23,0,0,1,134.92,653.51Zm103.67,88.61a18.22,18.22,0,1,0,6.67-24.89A18.23,18.23,0,0,0,238.59,742.12Zm31.56-159a18.22,18.22,0,1,0-24.89,6.67A18.22,18.22,0,0,0,270.15,583.14Zm-61.67,18.41a52,52,0,0,1,51.76,47.37l26.37-.42a78,78,0,0,0-23-50.55A25.64,25.64,0,0,1,229,578a78.58,78.58,0,0,0-55.28,5.37l12.83,23A51.88,51.88,0,0,1,208.48,601.55Zm-52,52A51.89,51.89,0,0,1,178.61,611l-13.54-22.63a78.38,78.38,0,0,0-32.3,45.18,25.63,25.63,0,0,1,0,40,78.43,78.43,0,0,0,32.3,45.19l13.54-22.63A51.91,51.91,0,0,1,156.51,653.51Zm52,52a51.88,51.88,0,0,1-21.9-4.83l-12.83,23A78.52,78.52,0,0,0,229,729.08a25.64,25.64,0,0,1,34.58-20,78.06,78.06,0,0,0,23-50.55l-26.37-.41A52,52,0,0,1,208.48,705.49Z" transform="translate(-66.74 -511.79)" style="fill: #fff"/>
  </g>
</svg>
