<svg id="asusTinker" xmlns="http://www.w3.org/2000/svg" width="144" height="72" viewBox="0 0 537.1 106.6">
  <title>AsusTinkerLogo</title>
  <path d="M929.08,79.3A11,11,0,0,1,940,68.2a11.16,11.16,0,0,1,7.7,3.2,11.11,11.11,0,0,1,0,15.6,10.82,10.82,0,0,1-18.6-7.7m-.9,0a12,12,0,0,0,11.9,12,11.26,11.26,0,0,0,8.3-3.5,12.3,12.3,0,0,0,3.5-8.5,11.87,11.87,0,0,0-3.5-8.5,11.58,11.58,0,0,0-8.3-3.5,12,12,0,0,0-11.9,12m7.4,7.1h1.7V80.8h3.8a3.42,3.42,0,0,1,1.5.2,2.19,2.19,0,0,1,.9,1.7l.2,2.2v1c.1.2.1.3.2.4H946V86c-.3-.1-.4-.4-.5-.8a3.11,3.11,0,0,1-.1-1.1l-.1-1.7a2.83,2.83,0,0,0-.4-1.6,3.6,3.6,0,0,0-1.2-.8,3,3,0,0,0,1.3-1.2,3.58,3.58,0,0,0,.4-1.9,3.24,3.24,0,0,0-1.7-3.1,5.27,5.27,0,0,0-2.3-.4h-5.7l-.1,13Zm1.6-7.1V74.8h4a2.65,2.65,0,0,1,1.4.3,2,2,0,0,1,.9,1.9c0,.9-.2,1.5-.7,1.8a3,3,0,0,1-1.8.5ZM463.38,95.8l-48.6,76.4H448l46.8-73Zm200.1-1.7V65.8H569c-12.9.8-18.5,7-22.7,11.4-4.5,4.7-7,14.6-7,14.6V66H489a12,12,0,0,0-10.1,5.4c-2.8,3.7-14.3,22.7-14.3,22.7Zm257,0V65.8H819.38c-12.8.8-18.5,7-22.7,11.4-4.5,4.7-7,14.6-7,14.6v2.3ZM696.68,65.9h-28.3V94.1h28.3Zm92.7,0h-28.2V94.1h28.2Zm0,38.4-27.8-1.7v32.7s-.1,9.4-9.2,9.4h-47.6s-8.1-.7-8.1-9.3V98.2l-28-2v50.1c4.5,24,26.2,25.9,26.2,25.9s2.2.1,2.6.2H762s27.6-2.2,27.6-28.8l-.2-39.3Zm-278.9,67.9h132.2c23-4.6,25.4-25.6,25.4-25.6a43.06,43.06,0,0,0,.5-11.3c-.7-4.2-8.7-22.8-25.9-24.4-10.3-1-102-8.3-102-8.3,1.8,9.2,5.9,13.9,8.7,16.5,6.4,6.1,16.5,7.9,16.5,7.9l70.7,5.9c2.2.1,6.3.7,6.2,6.1a5.55,5.55,0,0,1-5.8,5.4h-98.9v-42l-27.5-2C510.48,100.4,510.48,172.2,510.48,172.2Zm279.1.2h101.2c25.4-1.5,29-25.6,29-25.6a46.54,46.54,0,0,0,.2-11.5c-.7-5.7-8.8-22.9-26.1-24.6-10.2-1-102.5-6.4-102.5-6.4,2.7,9.5,6.4,12.4,9.2,15,6.4,6.2,15.9,7.6,15.9,7.6l71.4,6c2.2.1,6.7.3,6.7,5.7a6,6,0,0,1-1.8,4.2,11.57,11.57,0,0,1-4.7,1.3h-98.2Z" transform="translate(-414.78 -65.8)" style="fill: #00539b"/>
</svg>
