<svg id="huawei" xmlns="http://www.w3.org/2000/svg" xmlns:xlink="http://www.w3.org/1999/xlink" width="144" height="72" viewBox="0 0 298 298.2">
  <defs>
    <radialGradient id="radial-gradient" cx="4.09" cy="1277.35" r="1" gradientTransform="matrix(215.09, 0, 0, -215.09, -25.28, 275562.84)" gradientUnits="userSpaceOnUse">
      <stop offset="0" stop-color="#f9ab95"/>
      <stop offset="0.42" stop-color="#ed1c24"/>
      <stop offset="0.43" stop-color="#ed1c24"/>
      <stop offset="0.87" stop-color="#ed1c24"/>
      <stop offset="1" stop-color="#981015"/>
    </radialGradient>
  </defs>
  <title>HuaweiLogo</title>
  <g>
    <path d="M678.18,1055.5H702.5v-19.43h10.9V1084H702.5v-20H678.18v20H667.25v-47.93h10.93Z" transform="translate(-667.18 -786.32)" style="fill: #231f20"/>
    <g>
      <g>
        <path d="M733.21,1064.79c0,8.47,2.67,12,11.71,12s11.63-3.55,11.63-12v-28.72h10.94v29c0,6.12-.75,10.33-3.08,12.9-4.24,4.66-10.47,6.58-19.49,6.58s-15.31-1.92-19.6-6.58c-2.37-2.6-3-6.82-3-12.9v-29h10.85Z" transform="translate(-667.18 -786.32)" style="fill: #231f20"/>
        <path d="M789.33,1064.07h15.48l-7.88-18.44Zm13.81-28L825.26,1084H813.13l-4.78-11.4H785.77l-4.59,11.4H769.6l21.95-47.93Z" transform="translate(-667.18 -786.32)" style="fill: #231f20"/>
        <path d="M830.21,1036.07l12,36.85,10.12-36.85h12.89l11.6,36.85L888,1036.07h11.22l-16,47.93H869.83l-11.06-35.75L849.09,1084H835.77l-17.29-47.93Z" transform="translate(-667.18 -786.32)" style="fill: #231f20"/>
        <path d="M913.94,1055.56h30.18v8.33H913.87c.07,8.65,3.74,11.79,12.37,11.79h17.88V1084H925.73c-6.27,0-11.14-.45-16.2-4.2-5.37-3.92-7.94-10.22-7.94-18.88,0-17,7.71-24.85,24.45-24.85h18.08v8.38H926.24c-7.91,0-11.87,3.6-12.3,11.11" transform="translate(-667.18 -786.32)" style="fill: #231f20"/>
        <path d="M953.78,1036.07h11.4V1084h-11.4Z" transform="translate(-667.18 -786.32)" style="fill: #231f20"/>
      </g>
      <g>
        <path d="M824,953h0a1.1,1.1,0,0,0,.7,1h0a1.05,1.05,0,0,0,1.31-.51h0v0c8.81-12.69,48.37-71.41,56.47-107.16h0s4.32-17.32.11-29h0s-6-22.34-30.25-28.23h0a145.61,145.61,0,0,0-14.41-2.84h0S810.78,821.26,824,953Z" transform="translate(-667.18 -786.32)" style="fill: url(#radial-gradient)"/>
        <path d="M688.6,875.35c1,18.73,15.08,29.84,15.08,29.84h0c22.73,22.14,77.74,50.09,90.5,56.45h0c.17,0,.84.26,1.22-.24h0a1,1,0,0,0,.26-1.09h0c-35-76.47-82.87-134.46-82.87-134.46h0s-26,24.74-24.19,49.5Z" transform="translate(-667.18 -786.32)" style="fill: url(#radial-gradient)"/>
        <path d="M694.17,982.68c9.93,17.69,26.66,31.46,44.08,27.23h0c12-3,39.25-22,48.22-28.43h0c.7-.61.5-1.13.5-1.13h0a1.31,1.31,0,0,0-1.21-.82h0v0l-91.56,3.19Z" transform="translate(-667.18 -786.32)" style="fill: url(#radial-gradient)"/>
        <path d="M672.26,941.57a54.47,54.47,0,0,0,28.9,27.37h0a55.55,55.55,0,0,0,17.51,3.83h0c1.37.24,54.46,0,68.67,0h0a1.2,1.2,0,0,0,.95-.62h0c.44-.71-.33-1.39-.33-1.39h0C747.75,943.61,669.79,902,669.79,902h0a54.16,54.16,0,0,0,2.47,39.61Z" transform="translate(-667.18 -786.32)" style="fill: url(#radial-gradient)"/>
        <path d="M779.62,789.12a42.46,42.46,0,0,0-30,28.27h0c-4.42,13.84.12,29,.12,29h0c8.07,35.92,47.91,94.9,56.48,107.29h0c.61.61,1.07.38,1.07.38h0a1.15,1.15,0,0,0,.88-1.13h0c13.15-131.72-13.85-166.64-13.85-166.64h0c-4,.37-14.73,2.8-14.73,2.8Z" transform="translate(-667.18 -786.32)" style="fill: url(#radial-gradient)"/>
        <path d="M846.36,979.57s-.81.11-1,.71h0a1.19,1.19,0,0,0,.37,1.21h0v0c8.73,6.29,35.29,24.86,48.11,28.48h0s23.67,8.06,44.21-27.24h0l-91.66-3.21v0Z" transform="translate(-667.18 -786.32)" style="fill: url(#radial-gradient)"/>
        <path d="M844.33,970.68h0a1.24,1.24,0,0,0-.45,1.33h0s.38.68.92.68h0v0c14.4,0,69,0,70.35-.18h0a54.84,54.84,0,0,0,15.75-3.62h0s19.4-6.19,29.46-28.22h0a55.3,55.3,0,0,0,2-39h0S884.56,943.51,844.33,970.68Z" transform="translate(-667.18 -786.32)" style="fill: url(#radial-gradient)"/>
        <path d="M836.71,959.93h0a1.25,1.25,0,0,0,.23,1.47h0a1.19,1.19,0,0,0,1.24.1h0c13.13-6.52,67.69-34.27,90.3-56.31h0s14.31-11.49,15.08-29.94h0c1.64-25.66-24.14-49.4-24.14-49.4h0s-47.78,57.82-82.75,134.08Z" transform="translate(-667.18 -786.32)" style="fill: url(#radial-gradient)"/>
      </g>
    </g>
  </g>
</svg>
