<svg id="odroid" xmlns="http://www.w3.org/2000/svg" width="144" height="72" viewBox="0 0 582.28 184.8">
  <title>OdroidLogo</title>
  <path d="M429.6,823.8a66.08,66.08,0,0,1,11.68,1.86,50.55,50.55,0,0,1,32.41,27.71,47,47,0,0,1,4.38,17.16c.5,9.39.08,18.79.22,28.19a69.79,69.79,0,0,1-.53,11,49.64,49.64,0,0,1-6.83,19.09,50.24,50.24,0,0,1-26.48,21.55,50.7,50.7,0,0,1-45.7-6.42,49.88,49.88,0,0,1-18.43-24.17,52.35,52.35,0,0,1-3-18.21q0-13.44,0-26.88a50.47,50.47,0,0,1,31.34-47.06,42.57,42.57,0,0,1,13.26-3.36c.35,0,.63-.09.74-.47Zm17.55,64.67h0c0-4.72,0-9.44,0-14.16a19.64,19.64,0,0,0-.94-6.12,19.37,19.37,0,0,0-37.77,6c0,9.48,0,18.95,0,28.43a19.22,19.22,0,0,0,.88,5.9,19.45,19.45,0,0,0,25.74,12.26c6.65-2.66,11.91-9.77,12.05-17C447.24,898.71,447.15,893.59,447.15,888.47Z" transform="translate(-50.23 -823.8)"/>
  <path d="M102.48,823.8A52.7,52.7,0,0,1,120,827.62a50.72,50.72,0,0,1,31.39,47.68c0,9.32.29,18.65-.07,28-.82,21-10.85,36.14-29.68,45.38a45.79,45.79,0,0,1-22.54,4.5c-16-.75-28.85-7.55-38.64-20.2a49.73,49.73,0,0,1-8.79-18.51,45.57,45.57,0,0,1-1.33-10.91c-.05-10-.34-20.09,0-30.11.79-20.66,10.78-35.56,29.2-44.83,6.11-3.08,12.71-4.33,19.49-4.77Zm17.77,64.71c0-4.76,0-9.52,0-14.27a19,19,0,0,0-1.94-8.43,19.28,19.28,0,0,0-25.2-9.32c-7.48,3.44-11.46,9.52-11.65,17.72-.21,9.23,0,18.47,0,27.71a21.88,21.88,0,0,0,1.86,8.94c3.93,8.95,15,13.63,24,10.24a19.82,19.82,0,0,0,13-18.8C120.18,897.71,120.25,893.11,120.25,888.51Z" transform="translate(-50.23 -823.8)"/>
  <path d="M318.24,823.8c1.39.68,2.94.56,4.4.85A42.84,42.84,0,0,1,342,834a46.06,46.06,0,0,1,15.24,24.25,48.51,48.51,0,0,1-8.86,42.09,1.41,1.41,0,0,0,0,2.12,47,47,0,0,1,9.52,20.85,53.71,53.71,0,0,1,.89,10.12q-.06,9.24,0,18.48c0,1-.22,1.29-1.25,1.29q-14.15-.06-28.31,0c-1.18,0-1.38-.42-1.37-1.45,0-6.52.05-13,0-19.56a15.63,15.63,0,0,0-5.47-12.14,12.18,12.18,0,0,0-8.19-3.12q-19.56,0-39.11,0c-1.13,0-1.37-.33-1.37-1.4q.06-14.14,0-28.31c0-1.09.33-1.32,1.35-1.32,12.48,0,25-.28,37.44.12,10.4.34,16.28-8.9,15.26-17.62a15.56,15.56,0,0,0-6.29-11.22,12.53,12.53,0,0,0-7.73-2.4c-12.83,0-25.67,0-38.51,0-1.22,0-1.53-.31-1.52-1.53.05-9.4,0-18.8,0-28.19,0-.44,0-.88.07-1.32Z" transform="translate(-50.23 -823.8)"/>
  <path d="M585.36,823.8c1.89.53,3.85.51,5.78.87a50.83,50.83,0,0,1,37.73,30.81A44.31,44.31,0,0,1,632.41,872c.08,10.83.18,21.68,0,32.51a47.86,47.86,0,0,1-10.2,28.66,50.22,50.22,0,0,1-23.68,17.23,46.3,46.3,0,0,1-15.36,2.75c-11.68.06-23.36,0-35,.05-.88,0-1.16-.22-1.15-1.14q0-14.38,0-28.79c0-1,.36-1.09,1.18-1.09,11.08,0,22.16.07,33.24,0,8.78,0,14.94-4.23,18.55-12.19a18.53,18.53,0,0,0,1.45-7.71c0-9.24.09-18.48,0-27.71-.11-8.73-4.37-14.83-12.29-18.38a18,18,0,0,0-7.48-1.38q-16.61,0-33.23,0c-1.09,0-1.4-.28-1.4-1.4,0-9.87,0-19.75,0-29.63Z" transform="translate(-50.23 -823.8)"/>
  <path d="M208.56,823.8a56.22,56.22,0,0,0,5.65.87,49.63,49.63,0,0,1,15.51,5.67,50.32,50.32,0,0,1,22.86,27.14,44.13,44.13,0,0,1,2.79,15c.08,10.52.26,21,0,31.56-.41,15.35-6.79,28-18.55,37.79a49,49,0,0,1-18.38,9.56,47.19,47.19,0,0,1-12.89,1.79c-11.4,0-22.8,0-34.2,0-.91,0-1.23-.19-1.22-1.18q0-14.34,0-28.68c0-1,.33-1.16,1.23-1.16q16.42,0,32.87,0c8.86,0,15.64-4.52,19-12.68a15.14,15.14,0,0,0,1.22-5.7c0-10.24.07-20.48,0-30.72-.06-7.26-5.92-14.91-12.84-17.14a24.57,24.57,0,0,0-7.65-1.16c-10.8,0-21.6,0-32.4,0-1.1,0-1.39-.3-1.38-1.39,0-9.88,0-19.76,0-29.64Z" transform="translate(-50.23 -823.8)"/>
  <path d="M529,823.8c0,1.08,0,2.16,0,3.24q0,62.33,0,124.67c0,1.24-.34,1.51-1.53,1.5q-14.1-.08-28.2,0c-1,0-1.28-.26-1.28-1.26q0-63.6,0-127.19c0-.32,0-.64,0-1Z" transform="translate(-50.23 -823.8)"/>
  <path d="M393.84,1008.6c-1.5-.6-3.11-.83-4.5-1.78a14.76,14.76,0,0,1-6-9.32,23.82,23.82,0,0,1,.87-14c1.52-4,4-7.13,8.22-8.53,4.06-1.35,7.7-.72,10.77,2.41a8.11,8.11,0,0,0,.62.55l.11,0c.06-.05.17-.09.17-.13,0-4.12.21-8.24-.13-12.35-.19-2.31-.89-3-3.17-3.24a5.61,5.61,0,0,0-.59-.06c-.59,0-.71-.35-.69-.87s.31-.65.78-.65c4.24,0,8.48,0,12.71,0,.64,0,.86.29.86.87,0,.36,0,.72,0,1.08v35.75c0,.92,0,1.84.05,2.76.08,2.33.66,3,2.89,3.55.4.1,1-.11,1,.7s-.64.65-1.05.74c-3.32.68-6.65,1.32-10,2-.4.08-.81.07-1,.54h-1.2c-.55-.25-.49-.74-.49-1.22,0-1.2,0-2.4,0-3.6-2.17,2.39-4.49,4.28-7.67,4.82Zm10.31-17.48c0-2.16-.08-4.32,0-6.47.14-3.26-1.71-5.17-4.32-6.52a3.77,3.77,0,0,0-4.94,1.29,11.11,11.11,0,0,0-1.53,4.12,44.22,44.22,0,0,0-.43,10.15c.14,2.83.41,5.67,1.85,8.21a4.14,4.14,0,0,0,2.55,2.36c2.87.61,6.78-2.61,6.8-5.59C404.17,996.16,404.15,993.64,404.15,991.12Z" transform="translate(-50.23 -823.8)"/>
  <path d="M592.56,1008.6c-.41-.73-1.21-.45-1.81-.65a12.53,12.53,0,0,1-8.12-8.32,21.83,21.83,0,0,1,.87-17.33,13.84,13.84,0,0,1,9.42-7.66c5.94-1.35,10.68,1.17,13.49,6.53a21.61,21.61,0,0,1,2,8.08c.08.85-.2,1.09-1,1.08-5.15,0-10.31,0-15.47,0-1,0-1.32.23-1.15,1.29.51,3.26,1.26,6.41,3.52,9,3.19,3.62,7.65,3.69,10.89.14.59-.65,1.08-1.37,1.62-2.06.25-.32.42-.8,1-.37.43.32.63.53.32,1.12-1.75,3.28-3.76,6.28-7.26,8a8.06,8.06,0,0,1-2.24.78c-.33.06-.62.12-.73.48ZM595.13,988c1.28,0,2.56,0,3.83,0,.7,0,.9-.24.87-.9-.07-1.44,0-2.88-.13-4.31a9.73,9.73,0,0,0-1.23-4.32c-1.58-2.54-4.31-2.58-6-.07-1.79,2.73-2,5.81-2,8.94,0,.56.29.66.75.65Z" transform="translate(-50.23 -823.8)"/>
  <path d="M479.76,1008.6c-.48-.75-1.36-.5-2-.75-4.88-1.76-7.31-5.53-8.51-10.28a22.77,22.77,0,0,1,0-11.39c1.5-5.8,5-10,10.9-11.52s10.66,1.14,13.48,6.51a21.61,21.61,0,0,1,2,8.08c.08.85-.2,1.09-1,1.08-5.16,0-10.32,0-15.48,0-1,0-1.31.25-1.15,1.28.47,3,1.11,6,3.07,8.43,3.8,4.78,9.06,4.38,12.69-1,.37-.54.62-1.43,1.56-.57.28.26.28.4.14.69-2,3.92-4.48,7.33-8.89,8.82-.49.16-1.18-.09-1.44.61Zm2.6-20.64c1.24,0,2.48,0,3.71,0,.72,0,1-.18,1-.93-.07-1.24,0-2.48-.09-3.71a10.35,10.35,0,0,0-1.23-4.81c-1.55-2.64-4.34-2.69-6-.13-1.78,2.74-2,5.82-1.95,9,0,.58.35.62.78.62Z" transform="translate(-50.23 -823.8)"/>
  <path d="M289.17,960.66h11c.48,0,1.11-.2,1.14.65s-.67.68-1.18.71-1.05,0-1.56,0c-2.05.26-3.67,1.43-3.74,3.74-.05,1.8-.13,3.6-.13,5.39V997c0,1.84,0,3.68.15,5.51a3.73,3.73,0,0,0,3.62,3.7c.71.06,1.44,0,2.16,0,.54,0,.69.28.68.75a.57.57,0,0,1-.68.63c-.24,0-.48,0-.72,0H278.24c-.2,0-.4,0-.6,0-.53,0-.85-.14-.83-.74s.36-.63.81-.64a10.17,10.17,0,0,0,3.2-.29,3.48,3.48,0,0,0,2.56-3.4c.09-5.6.05-11.2.08-16.8,0-.52-.19-.69-.7-.69q-7.56,0-15.12,0c-.61,0-.73.29-.72.81.07,5.72-.17,11.44.19,17.16a3.7,3.7,0,0,0,3.51,3.16,19.41,19.41,0,0,0,2.16,0c.56,0,.8.22.79.78s-.39.6-.82.6H250c-.48,0-.88,0-.89-.66s.46-.7,1-.72a10,10,0,0,0,3.07-.31,3.65,3.65,0,0,0,2.47-3.46c0-.32,0-.64,0-1q0-17.46,0-34.91c0-3.13-1.42-4.51-4.55-4.57h-1.2c-.45,0-.76-.08-.77-.65s.3-.76.83-.72h22.8c.5,0,.85.08.87.69s-.37.68-.85.68a8.32,8.32,0,0,0-3.42.43,3.29,3.29,0,0,0-2.2,3c-.36,5.19-.1,10.39-.19,15.59,0,.72.26,1,1,1q7.32,0,14.64,0c.76,0,.94-.28.94-1,0-4.92,0-9.84-.05-14.76,0-2.68-1.48-4.1-4.17-4.22-.52,0-1,0-1.56,0s-.9,0-.89-.65.33-.75.85-.72h11.52Z" transform="translate(-50.23 -823.8)"/>
  <path d="M438.64,991.34c2.05-2,4.06-4,6.05-5.93,1.18-1.18,2.32-2.4,3.48-3.6a4.49,4.49,0,0,0,1.05-1.85,2.18,2.18,0,0,0-1.74-3.05c-.42-.1-.85-.21-1.28-.29s-.53-.39-.53-.79.3-.58.7-.58h12.84c.37,0,.84-.13.9.5s-.11.77-.61.82c-2.63.3-4.49,1.91-6.28,3.64s-3.72,3.59-5.59,5.37a1,1,0,0,0-.17,1.5c3.79,5.44,7.51,10.94,11.29,16.39.91,1.31,1.91,2.59,3.7,2.75.61.06.5.5.5.89,0,.66-.52.49-.88.49H447c-.38,0-.73,0-.74-.54a.72.72,0,0,1,.63-.84c1.62-.42,1.94-1.1,1-2.59-1.81-2.86-3.73-5.64-5.61-8.44a3.81,3.81,0,0,0-.47-.69c-.52-.49-.59-1.52-1.4-1.52s-1.89,2-1.89,2.77c0,2.28-.07,4.56,0,6.84.13,2.48.71,3.27,2.81,3.6.58.1.58.45.57.86s-.34.55-.73.55H426.05c-.46,0-.78-.08-.77-.65s.18-.66.68-.78c2-.47,2.5-1.07,2.69-3.08.1-1,.17-2.08.17-3.11q0-15.9,0-31.8a29.33,29.33,0,0,0-.19-3.11c-.21-1.92-.69-2.5-2.55-3-.55-.14-.87-.26-.8-.9s.55-.56,1-.56c3.68,0,7.36,0,11,0,1,0,1.2.28,1.2,1.21,0,9.32,0,18.64,0,28A3.19,3.19,0,0,0,438.64,991.34Z" transform="translate(-50.23 -823.8)"/>
  <path d="M551.29,979.43c2.09-2.13,4-3.91,6.63-4.68,5.25-1.55,10.1.83,11.19,6.35a28.46,28.46,0,0,1,.41,5.37q0,7.32,0,14.63c0,.76.06,1.52.13,2.27a2.78,2.78,0,0,0,2.67,2.84c.56,0,.62.37.62.81s-.28.6-.7.6h-15c-.35,0-.64-.06-.64-.51s0-.77.45-.85c2.06-.38,2.72-1.92,2.74-3.68.09-6.75.26-13.51-.09-20.26-.17-3.21-2.86-4.36-5.53-2.41a6.16,6.16,0,0,0-3,5.49c.18,5.19.06,10.39,0,15.59a17.49,17.49,0,0,0,.29,3,2.56,2.56,0,0,0,2.18,2.22c.5.1.83.24.8.81s-.49.62-.94.62H539.11c-.44,0-.93.08-1-.58s.22-.75.76-.84a2.74,2.74,0,0,0,2.58-2.67c0-.75.17-1.51.17-2.26,0-6.52,0-13,0-19.56a19.24,19.24,0,0,0-.16-2.27A2.77,2.77,0,0,0,539,976.7c-.52-.08-.94-.25-.84-.91s.59-.53,1-.53c3.72,0,7.44,0,11.16,0,.82,0,1,.29,1,1C551.25,977.23,551.29,978.18,551.29,979.43Z" transform="translate(-50.23 -823.8)"/>
  <path d="M326.34,1002.89a26,26,0,0,1-7.26,4.56c-3.7,1.37-7.19.39-8.93-2.58-1.39-2.36-1-5.78,1-8.3s4.89-4.14,7.7-5.68c2.24-1.22,4.55-2.3,6.84-3.39a1.08,1.08,0,0,0,.73-1.1,48,48,0,0,0-.24-6.46,4,4,0,0,0-3.37-3,6.25,6.25,0,0,0-4.26.84,1.72,1.72,0,0,0-.58,2.79,8.47,8.47,0,0,0,.58.76,3.75,3.75,0,0,1,.86,4.2,4.11,4.11,0,0,1-3.64,2.5c-2.87.3-5.44-1.37-5.73-4a6.35,6.35,0,0,1,1.59-4.63,13.15,13.15,0,0,1,7.46-4.41,20.51,20.51,0,0,1,8.54-.5,9.67,9.67,0,0,1,7.91,6,10.09,10.09,0,0,1,.46,3.79c.05,5.15,0,10.31.06,15.47a17.35,17.35,0,0,0,.17,2.39c.22,1.48,1.32,1.86,2.49.91.34-.28.57-.91,1.21-.28s.1.89-.19,1.28c-2.63,3.5-5.57,4.63-9.45,3.66a4.9,4.9,0,0,1-3.61-3.6C326.54,1003.76,326.47,1003.41,326.34,1002.89Zm0-7.81c0-1.52,0-3,0-4.56,0-1-.39-.87-1-.49a21.23,21.23,0,0,0-4.78,4.08,7,7,0,0,0-1.81,3.94,3.68,3.68,0,0,0,3.29,4.19,3.9,3.9,0,0,0,4.25-3.69Z" transform="translate(-50.23 -823.8)"/>
  <path d="M628.58,982V1001a11.31,11.31,0,0,0,.29,2.85,2.58,2.58,0,0,0,2.63,2.32c.57.06,1,.1,1,.85s-.66.55-1.09.55q-7.61,0-15.22,0c-.42,0-1,.25-1.07-.56s.43-.77,1-.84a2.82,2.82,0,0,0,2.68-2.46,9.51,9.51,0,0,0,.2-2.26V967a9.06,9.06,0,0,0-.18-2.14c-.46-1.93-1-2.47-2.94-2.74-.55-.08-.76-.23-.74-.79s.34-.63.79-.63c4,0,7.91,0,11.86,0,1,0,.84.61.84,1.18Z" transform="translate(-50.23 -823.8)"/>
  <path d="M516.64,982c1.91-2.16,3.32-4.55,5.68-6.11a7.52,7.52,0,0,1,5.5-1.47,3.73,3.73,0,0,1,3.19,3.12,6.13,6.13,0,0,1,0,3c-.88,3.22-4,4.24-6.65,2.2-.35-.26-.67-.56-1-.84-1.3-1.11-2.41-1.06-3.7.12-1.46,1.34-2,3.14-2.43,5a31,31,0,0,0-.54,7.75c0,2.72,0,5.44,0,8.16,0,2.25.89,3.15,3.14,3.36a2.08,2.08,0,0,1,.8.17c.27.16.19.5.17.78,0,.44-.38.44-.71.44H504c-.42,0-.68-.11-.69-.6a.68.68,0,0,1,.64-.8c2.12-.44,2.45-.82,2.77-3a13.73,13.73,0,0,0,.19-1.91c0-6.92,0-13.84,0-20.75,0-2.71-.38-3.12-3-4a.72.72,0,0,1-.6-.86c0-.53.41-.51.77-.51,3.88,0,7.76,0,11.64,0,.79,0,.92.39.91,1C516.63,978.19,516.64,980.09,516.64,982Z" transform="translate(-50.23 -823.8)"/>
  <path d="M360.89,982.39a45.58,45.58,0,0,1,4.16-5.22,9.6,9.6,0,0,1,5.16-2.78,4.23,4.23,0,0,1,5.25,4.68,6.23,6.23,0,0,1-.6,2.54,4,4,0,0,1-6,1.26c-.51-.38-1-.79-1.48-1.21a2.16,2.16,0,0,0-2.94,0,7.7,7.7,0,0,0-2.73,4.61,28.3,28.3,0,0,0-.78,7.72c0,3,0,5.92.06,8.88.05,2.22,1,3.18,3.18,3.38.49,0,1,0,1,.73s-.51.66-1,.66H348.63c-.42,0-.9.11-.91-.6,0-.56.21-.72.75-.82,1.87-.35,2.6-1.21,2.64-3.24.07-4.08.08-8.16.08-12.24,0-3.6,0-7.19,0-10.79,0-2.06-.56-2.69-2.52-3.2-.54-.14-1-.22-.9-1s.72-.49,1.13-.49c3.64,0,7.28,0,10.92,0,.92,0,1.16.29,1.13,1.16C360.85,978.27,360.89,980.15,360.89,982.39Z" transform="translate(-50.23 -823.8)"/>
</svg>
