<svg id="RaspberyPi" xmlns="http://www.w3.org/2000/svg" width="144" height="72" viewBox="0 0 241.53 250.64">
  <title>RaspberryPiLogo</title>
  <path d="M148.59,43a9.19,9.19,0,0,0-4.94,1.73c-4.47-1.46-8.81-2-12.69,1-6-.66-7.94.7-9.41,2.29-1.32,0-9.84-1.15-13.75,3.79-9.83-1-12.93,4.9-9.42,10.39-2,2.63-4.08,5.23.61,10.25-1.66,2.8-.63,5.83,3.28,9.5-1,3.93,1,6.7,4.64,8.86-.68,5.38,5.82,8.51,7.76,9.62.74,3.14,2.29,6.09,9.72,7.73,1.22,4.67,5.69,5.48,10,6.46-14.28,7-26.53,16.29-26.45,39l-2.09,3.16c-16.37,8.44-31.11,35.57-8.07,57.62,1.51,6.9,4,11.85,6.28,17.34,3.36,22.11,25.29,32.46,31.08,33.68,8.47,5.48,17.5,10.67,29.72,14.31a53.88,53.88,0,0,0,36.54,13.9c.19,0,25.58-3.83,37.1-13.9,12.22-3.64,21.24-8.83,29.72-14.31,5.79-1.22,27.72-11.57,31.08-33.68,2.25-5.49,4.77-10.44,6.28-17.34,23-22.05,8.3-49.18-8.07-57.62l-2.1-3.16c.09-22.71-12.16-32-26.44-39,4.32-1,8.78-1.78,10-6.45,7.42-1.64,9-4.6,9.72-7.73,1.94-1.11,8.44-4.24,7.76-9.62,3.64-2.16,5.67-4.93,4.63-8.86,3.91-3.67,4.94-6.71,3.28-9.5,4.7-5,2.61-7.62.61-10.25,3.52-5.49.41-11.37-9.42-10.39-3.9-4.94-12.43-3.82-13.75-3.8-1.47-1.58-3.42-2.94-9.41-2.28-3.88-3-8.22-2.47-12.69-1-5.32-3.55-8.83-.71-12.85.37-6.43-1.78-7.9.66-11.06,1.65-7-1.25-9.15,1.48-12.51,4.37l-3.92-.07c-10.58,5.29-15.84,16-17.7,21.59-1.86-5.54-7.11-16.3-17.69-21.59l-3.91.07c-3.37-2.89-5.5-5.62-12.52-4.37-3.16-1-4.62-3.43-11.06-1.65-2.64-.71-5.06-2.17-7.92-2.1L76,151.13" transform="translate(-75.95 -43.03)"/>
  <path d="M127.52,66.28c28.07,12.27,44.4,22.2,53.34,30.65-4.58,15.55-28.47,16.26-37.2,15.83,1.78-.71,3.28-1.56,3.81-2.85-2.2-1.32-10-.14-15.39-2.73,2.08-.36,3.06-.72,4-2-5.12-1.39-10.65-2.58-13.89-4.88,1.75,0,3.38.34,5.67-1-4.59-2.1-9.49-3.76-13.29-7,2.37,0,4.93,0,5.67-.76a50.6,50.6,0,0,1-10.68-7.35c3.32.34,4.73,0,5.53-.44-3.18-2.76-7.2-5.09-9.11-8.49,2.46.73,4.72,1,6.35-.06-1.08-2.06-5.71-3.28-8.37-8.1,2.6.21,5.35.48,5.9,0-1.2-4.16-3.27-6.5-5.3-8.93,5.56-.07,14,0,13.6-.38l-3.44-3c5.43-1.24,11,.2,15,1.26,1.81-1.21,0-2.74-2.24-4.3a62.36,62.36,0,0,1,12.55,2.66c2-1.54-1.3-3.08-2.91-4.62a35.47,35.47,0,0,1,13.15,4.36c2.17-1.76.12-3.27-1.35-4.81a33.31,33.31,0,0,1,11.06,6c1-1.13,2.51-2,.67-4.69a27.26,27.26,0,0,1,8.82,6.52c2.36-1.27,1.4-3,1.41-4.62,4,2.73,6.49,5.64,9.57,8.48.62-.38,1.16-1.68,1.64-3.73,9.46,7.78,22.83,27.37,3.44,35.14C169.06,81,149.35,72.58,127.51,66.29h0m149,0c-28.08,12.27-44.4,22.19-53.34,30.65,4.58,15.55,28.47,16.26,37.2,15.83-1.79-.71-3.28-1.56-3.81-2.85,2.2-1.32,10-.14,15.39-2.73-2.08-.36-3.06-.72-4-2,5.12-1.39,10.65-2.58,13.89-4.88-1.75,0-3.39.34-5.67-1,4.59-2.1,9.49-3.76,13.29-7-2.37,0-4.93,0-5.67-.76a50.6,50.6,0,0,0,10.68-7.35c-3.32.34-4.73,0-5.53-.44,3.18-2.76,7.2-5.09,9.11-8.49-2.46.73-4.72,1-6.35-.06,1.08-2.06,5.71-3.28,8.37-8.1-2.6.21-5.35.48-5.9,0,1.21-4.17,3.27-6.51,5.3-8.93-5.55-.07-14,0-13.59-.38l3.43-3c-5.43-1.23-11,.2-15,1.27-1.81-1.21,0-2.74,2.24-4.3a62.51,62.51,0,0,0-12.55,2.66c-2-1.54,1.31-3.09,2.91-4.63a35.77,35.77,0,0,0-13.15,4.37c-2.17-1.77-.12-3.27,1.35-4.81a33.41,33.41,0,0,0-11.06,6c-1-1.13-2.51-2-.67-4.69a27.07,27.07,0,0,0-8.81,6.52c-2.36-1.27-1.41-3-1.42-4.62-4,2.73-6.49,5.64-9.57,8.48-.62-.38-1.16-1.68-1.64-3.73-9.46,7.78-22.83,27.37-3.43,35.14,16.49-11.54,36.2-19.93,58-26.22h0" transform="translate(-75.95 -43.03)" style="fill: #75a928"/>
  <path d="M236,224.68c.1,14.51-14.88,26.34-33.45,26.42S168.84,239.47,168.74,225v-.27c-.09-14.52,14.88-26.35,33.46-26.42s33.7,11.62,33.8,26.14v.28M182.91,149.6c13.94,7.74,16.45,25.27,5.62,39.17s-30.92,18.89-44.86,11.15-16.44-25.27-5.61-39.17S169,141.86,182.91,149.6m37.61-1.4c-13.93,7.73-16.44,25.27-5.61,39.17s30.92,18.89,44.85,11.15,16.45-25.27,5.61-39.17-30.91-18.89-44.85-11.15M113.27,162.25c15-3.42,5.08,52.75-7.16,48.14-13.46-9.18-17.8-36.06,7.16-48.14m173.86-.7c-15.05-3.42-5.08,52.75,7.16,48.14,13.47-9.18,17.8-36.06-7.16-48.14M236,119.72c26-3.71,47.57,9.36,46.7,33.22-.86,9.15-56.26-31.86-46.7-33.22m-71.73-.7c-26-3.72-47.57,9.36-46.69,33.22.85,9.15,56.26-31.86,46.69-33.22m37.29-5.56c-15.49-.35-30.36,9.74-30.4,15.59,0,7.11,12.25,14.39,30.51,14.58,18.64.11,30.54-5.83,30.6-13.17.07-8.31-17-17.13-30.71-17h0m1,145.8c13.51-.5,31.64,3.69,31.68,9.24.22,5.4-16.45,17.59-32.57,17.35-16.71.61-33.09-11.6-32.87-15.83-.25-6.2,20.34-11,33.76-10.76m-49.9-32.92c9.62,9.82,14,27.07,6,32.16-7.6,3.88-26,2.28-39.15-13.68-8.84-13.39-7.7-27-1.49-31,9.28-4.79,23.62,1.68,34.66,12.54h0m97.88-3.12c-10.41,10.33-16.21,29.18-8.61,35.24,7.26,4.72,26.74,4.06,41.14-12.87,10.45-11.37,7-30.35,1-35.39-8.87-5.82-21.61,1.62-33.51,13h0" transform="translate(-75.95 -43.03)" style="fill: #bc1142"/>
</svg>
